REM DIRINDEX 1\2,1\3,1\4,1\5,1\6,1\7,1\8
REM DIRNAME folder01,folder02,folder03,folder04,folder05,folder06,folder07,folder08
TITLE ""
FILE "010 でる文60.mp3" MP3
  TRACK 01 AUDIO
    TITLE "0:"
    INDEX 01 00:00:00
  TRACK 02 AUDIO
    TITLE "8:cjc150_2837"
    INDEX 01 00:00:01
  TRACK 03 AUDIO
    TITLE "0:"
    INDEX 01 00:01:50
  TRACK 04 AUDIO
    TITLE "2:cjc150_2838"
    INDEX 01 00:02:34
  TRACK 05 AUDIO
    TITLE "0:"
    INDEX 01 00:10:47
  TRACK 06 AUDIO
    TITLE "8:cjc150_2839"
    INDEX 01 00:12:07
  TRACK 07 AUDIO
    TITLE "0:"
    INDEX 01 00:14:58
  TRACK 08 AUDIO
    TITLE "3:cjc150_2840"
    INDEX 01 00:15:44
  TRACK 09 AUDIO
    TITLE "3:cjc150_2841"
    INDEX 01 00:17:63
  TRACK 10 AUDIO
    TITLE "3:cjc150_2842"
    INDEX 01 00:20:00
  TRACK 11 AUDIO
    TITLE "3:cjc150_2843"
    INDEX 01 00:21:37
  TRACK 12 AUDIO
    TITLE "3:cjc150_2844"
    INDEX 01 00:22:66
  TRACK 13 AUDIO
    TITLE "3:cjc150_2845"
    INDEX 01 00:24:08
  TRACK 14 AUDIO
    TITLE "3:cjc150_2846"
    INDEX 01 00:25:17
  TRACK 15 AUDIO
    TITLE "3:cjc150_2847"
    INDEX 01 00:27:06
  TRACK 16 AUDIO
    TITLE "3:cjc150_2848"
    INDEX 01 00:28:74
  TRACK 17 AUDIO
    TITLE "3:cjc150_2849"
    INDEX 01 00:31:69
  TRACK 18 AUDIO
    TITLE "3:cjc150_2850"
    INDEX 01 00:34:65
  TRACK 19 AUDIO
    TITLE "3:cjc150_2851"
    INDEX 01 00:36:05
  TRACK 20 AUDIO
    TITLE "8:cjc150_2852"
    INDEX 01 00:37:24
  TRACK 21 AUDIO
    TITLE "0:"
    INDEX 01 00:40:01
  TRACK 22 AUDIO
    TITLE "4:cjc150_2853"
    INDEX 01 00:40:50
  TRACK 23 AUDIO
    TITLE "4:cjc150_2854"
    INDEX 01 00:43:52
  TRACK 24 AUDIO
    TITLE "4:cjc150_2855"
    INDEX 01 00:47:15
  TRACK 25 AUDIO
    TITLE "4:cjc150_2856"
    INDEX 01 00:49:39
  TRACK 26 AUDIO
    TITLE "4:cjc150_2857"
    INDEX 01 00:52:18
  TRACK 27 AUDIO
    TITLE "4:cjc150_2858"
    INDEX 01 00:55:57
  TRACK 28 AUDIO
    TITLE "8:cjc150_2859"
    INDEX 01 00:59:51
  TRACK 29 AUDIO
    TITLE "0:"
    INDEX 01 01:02:46
  TRACK 30 AUDIO
    TITLE "5:cjc150_2860"
    INDEX 01 01:03:22
  TRACK 31 AUDIO
    TITLE "5:cjc150_2861"
    INDEX 01 01:06:14
  TRACK 32 AUDIO
    TITLE "5:cjc150_2862"
    INDEX 01 01:09:26
  TRACK 33 AUDIO
    TITLE "5:cjc150_2863"
    INDEX 01 01:11:45
  TRACK 34 AUDIO
    TITLE "5:cjc150_2864"
    INDEX 01 01:13:57
  TRACK 35 AUDIO
    TITLE "5:cjc150_2865"
    INDEX 01 01:15:01
  TRACK 36 AUDIO
    TITLE "5:cjc150_2866"
    INDEX 01 01:17:18
  TRACK 37 AUDIO
    TITLE "5:cjc150_2867"
    INDEX 01 01:18:56
  TRACK 38 AUDIO
    TITLE "5:cjc150_2868"
    INDEX 01 01:19:74
  TRACK 39 AUDIO
    TITLE "5:cjc150_2869"
    INDEX 01 01:21:25
  TRACK 40 AUDIO
    TITLE "5:cjc150_2870"
    INDEX 01 01:23:20
  TRACK 41 AUDIO
    TITLE "5:cjc150_2871"
    INDEX 01 01:24:37
  TRACK 42 AUDIO
    TITLE "5:cjc150_2872"
    INDEX 01 01:25:47
  TRACK 43 AUDIO
    TITLE "5:cjc150_2873"
    INDEX 01 01:28:20
  TRACK 44 AUDIO
    TITLE "5:cjc150_2874"
    INDEX 01 01:30:71
  TRACK 45 AUDIO
    TITLE "5:cjc150_2875"
    INDEX 01 01:32:64
  TRACK 46 AUDIO
    TITLE "5:cjc150_2876"
    INDEX 01 01:34:54
  TRACK 47 AUDIO
    TITLE "5:cjc150_2877"
    INDEX 01 01:37:22
  TRACK 48 AUDIO
    TITLE "5:cjc150_2878"
    INDEX 01 01:41:03
  TRACK 49 AUDIO
    TITLE "5:cjc150_2879"
    INDEX 01 01:44:01
  TRACK 50 AUDIO
    TITLE "5:cjc150_2880"
    INDEX 01 01:46:63
  TRACK 51 AUDIO
    TITLE "5:cjc150_2881"
    INDEX 01 01:47:74
  TRACK 52 AUDIO
    TITLE "5:cjc150_2882"
    INDEX 01 01:50:11
  TRACK 53 AUDIO
    TITLE "5:cjc150_2883"
    INDEX 01 01:51:27
  TRACK 54 AUDIO
    TITLE "8:cjc150_2884"
    INDEX 01 01:52:53
  TRACK 55 AUDIO
    TITLE "0:"
    INDEX 01 01:55:36
  TRACK 56 AUDIO
    TITLE "6:cjc150_2885"
    INDEX 01 01:56:16
  TRACK 57 AUDIO
    TITLE "6:cjc150_2886"
    INDEX 01 01:59:14
  TRACK 58 AUDIO
    TITLE "6:cjc150_2887"
    INDEX 01 02:03:08
  TRACK 59 AUDIO
    TITLE "6:cjc150_2888"
    INDEX 01 02:06:10
  TRACK 60 AUDIO
    TITLE "6:cjc150_2889"
    INDEX 01 02:09:17
  TRACK 61 AUDIO
    TITLE "6:cjc150_2890"
    INDEX 01 02:12:36
  TRACK 62 AUDIO
    TITLE "6:cjc150_2891"
    INDEX 01 02:15:43
  TRACK 63 AUDIO
    TITLE "6:cjc150_2892"
    INDEX 01 02:17:63
  TRACK 64 AUDIO
    TITLE "6:cjc150_2893"
    INDEX 01 02:20:01
  TRACK 65 AUDIO
    TITLE "6:cjc150_2894"
    INDEX 01 02:23:09
  TRACK 66 AUDIO
    TITLE "6:cjc150_2895"
    INDEX 01 02:27:34
  TRACK 67 AUDIO
    TITLE "6:cjc150_2896"
    INDEX 01 02:30:74
  TRACK 68 AUDIO
    TITLE "8:cjc150_2897"
    INDEX 01 02:33:66
  TRACK 69 AUDIO
    TITLE "0:"
    INDEX 01 02:35:45
  TRACK 70 AUDIO
    TITLE "7:cjc150_2898"
    INDEX 01 02:36:23
  TRACK 71 AUDIO
    TITLE "7:cjc150_2899"
    INDEX 01 02:44:36
  TRACK 72 AUDIO
    TITLE "0:"
    INDEX 01 02:52:46
